<svg width="24" height="24" viewBox="0 0 24 24" fill="none" xmlns="http://www.w3.org/2000/svg">
<path d="M12 10.823C12 10.823 11.2312 8.5 9.49999 8.5C7.76879 8.5 7 10.823 7 10.823C7 10.823 6.49479 8.5 4.5 8.5C2.50521 8.5 2 10.823 2 10.823C2 10.823 1.05469 13.5 4.5 13.5C7.94531 13.5 7 10.823 7 10.823C7 10.823 7.76879 13.5 9.49999 13.5C11.2312 13.5 12 10.823 12 10.823Z" stroke="currentColor" stroke-width="1.5" stroke-linecap="round" stroke-linejoin="round"/>
<path d="M12 10.823C12 10.823 12.7688 8.5 14.5 8.5C16.2312 8.5 17 10.823 17 10.823C17 10.823 17.5052 8.5 19.5 8.5C21.4948 8.5 22 10.823 22 10.823C22 10.823 22.9453 13.5 19.5 13.5C16.0547 13.5 17 10.823 17 10.823C17 10.823 16.2312 13.5 14.5 13.5C12.7688 13.5 12 10.823 12 10.823Z" stroke="currentColor" stroke-width="1.5" stroke-linecap="round" stroke-linejoin="round"/>
</svg>
